HIERARCHY
ROOT Hips
{
 OFFSET 0.000000 0.000000 0.000000
 CHANNELS 6 Xposition Yposition Zposition Yrotation Xrotation Zrotation
 JOINT Chest
 {
  OFFSET 0.000000 9.585900 0.002600
  CHANNELS 3 Yrotation Xrotation Zrotation
  JOINT Chest2
  {
   OFFSET 0.000000 9.601200 -0.005300
   CHANNELS 3 Yrotation Xrotation Zrotation
   JOINT Chest3
   {
    OFFSET 0.000000 9.561800 0.000000
    CHANNELS 3 Yrotation Xrotation Zrotation
    JOINT Chest4
    {
     OFFSET 0.000000 9.552100 0.000000
     CHANNELS 3 Yrotation Xrotation Zrotation
     JOINT Neck
     {
      OFFSET 0.000000 14.453000 0.000000
      CHANNELS 3 Yrotation Xrotation Zrotation
      JOINT Head
      {
       OFFSET 0.000000 8.936500 -0.011300
       CHANNELS 3 Yrotation Xrotation Zrotation
       End Site
       {
        OFFSET 0.000000 17.073600 -0.006000
       }
      }
     }
     JOINT RightCollar
     {
      OFFSET -2.921100 9.558500 0.000000
      CHANNELS 3 Yrotation Xrotation Zrotation
      JOINT RightShoulder
      {
       OFFSET -13.519700 0.000000 0.000000
       CHANNELS 3 Yrotation Xrotation Zrotation
       JOINT RightElbow
       {
        OFFSET 0.000000 -29.696600 0.000000
        CHANNELS 3 Yrotation Xrotation Zrotation
        JOINT RightWrist
        {
         OFFSET 0.000000 -24.004700 0.000000
         CHANNELS 3 Yrotation Xrotation Zrotation
         End Site
         {
          OFFSET 0.000000 -17.728500 0.000000
         }
        }
       }
      }
     }
     JOINT LeftCollar
     {
      OFFSET 2.921100 9.558500 0.000000
      CHANNELS 3 Yrotation Xrotation Zrotation
      JOINT LeftShoulder
      {
       OFFSET 13.519700 0.000000 0.000000
       CHANNELS 3 Yrotation Xrotation Zrotation
       JOINT LeftElbow
       {
        OFFSET 0.000000 -29.696600 0.000000
        CHANNELS 3 Yrotation Xrotation Zrotation
        JOINT LeftWrist
        {
         OFFSET 0.000000 -24.004700 0.000000
         CHANNELS 3 Yrotation Xrotation Zrotation
         End Site
         {
          OFFSET 0.000000 -17.728500 0.000000
         }
        }
       }
      }
     }
    }
   }
  }
 }
 JOINT RightHip
 {
  OFFSET -7.771700 -0.012900 -0.001300
  CHANNELS 3 Yrotation Xrotation Zrotation
  JOINT RightKnee
  {
   OFFSET 0.000000 -40.869800 0.001200
   CHANNELS 3 Yrotation Xrotation Zrotation
   JOINT RightAnkle
   {
    OFFSET 0.000000 -39.717900 0.002100
    CHANNELS 3 Yrotation Xrotation Zrotation
    JOINT RightToe
    {
     OFFSET 0.000000 -4.965400 11.033500
     CHANNELS 3 Yrotation Xrotation Zrotation
     End Site
     {
      OFFSET 0.000000 -1.423100 5.872300
     }
    }
   }
  }
 }
 JOINT LeftHip
 {
  OFFSET 7.771700 -0.012900 -0.001300
  CHANNELS 3 Yrotation Xrotation Zrotation
  JOINT LeftKnee
  {
   OFFSET 0.000000 -40.869800 0.001200
   CHANNELS 3 Yrotation Xrotation Zrotation
   JOINT LeftAnkle
   {
    OFFSET 0.000000 -39.717900 0.002100
    CHANNELS 3 Yrotation Xrotation Zrotation
    JOINT LeftToe
    {
     OFFSET 0.000000 -4.965400 11.033500
     CHANNELS 3 Yrotation Xrotation Zrotation
     End Site
     {
      OFFSET 0.000000 -1.423100 5.872300
     }
    }
   }
  }
 }
}
MOTION
Frames: 15
Frame Time: 0.008333
0.000000 85.388000 0.000000 0.000000 -5.767877 0.000000 0.000000 11.653817 0.000000 0.000000 -5.885947 0.000000 0.000000 -0.000000 0.000000 0.000000 -0.000000 0.000000 0.000000 12.528835 0.000000 0.000000 0.711642 0.000000 0.000000 -0.000000 0.000000 0.000000 0.000000 -90.000000 0.000000 -2.309062 0.000000 0.000000 2.309062 0.000000 0.000000 -0.000000 0.000000 0.000000 -0.000000 90.000000 0.000000 -2.309062 0.000000 0.000000 2.309062 0.000000 0.000000 8.520406 0.000000 0.000000 1.905762 0.000000 -0.000000 -4.658285 0.000000 0.000000 -0.000000 0.000000 0.000000 8.520406 0.000000 0.000000 1.905762 0.000000 -0.000000 -4.658285 0.000000 0.000000 -0.000000 0.000000
-40.135975 43.559198 27.741638 -179.641063 -27.740552 0.533916 -0.784745 16.799361 1.138716 -0.115478 1.774664 0.189905 -0.189367 2.958081 0.314619 -0.820542 14.898112 1.493564 -2.413119 16.573440 -3.006423 -1.883725 -8.311465 -2.637245 7.703086 -0.627492 -8.958202 -12.835464 -12.652739 -16.912111 -165.660942 -50.956238 -174.928489 -4.227976 -3.824802 -17.756933 -17.456976 -4.497159 -3.115960 1.226136 -18.753200 3.071409 147.036102 -53.458792 -178.334776 11.218072 1.264106 -3.637773 1.534227 -65.191894 3.778863 -154.455629 68.997443 -155.089589 -12.517363 -20.299287 9.584482 0.340086 -1.049026 0.155790 4.613727 -48.922733 -6.312786 179.251766 58.102902 178.328685 -3.539889 -39.474949 4.113403 0.018328 0.131375 -0.013905
-40.139448 43.559563 27.737685 -179.638807 -27.729270 0.529835 -0.779126 16.811229 1.156396 -0.115079 1.775653 0.190860 -0.190568 2.953043 0.312341 -0.810284 14.909527 1.504770 -2.424420 16.563338 -3.012891 -1.883730 -8.304437 -2.638896 7.721523 -0.632128 -8.960733 -12.851015 -12.671429 -16.926216 -165.600650 -50.949564 -174.939175 -4.223971 -3.813963 -17.743087 -17.451492 -4.499857 -3.114574 1.218471 -18.766700 3.074434 147.058605 -53.475330 -178.342523 11.218856 1.274794 -3.606925 1.525881 -65.202470 3.777203 -154.419524 68.987065 -155.049186 -12.512254 -20.288547 9.570967 0.364001 -1.063658 0.167399 4.603095 -48.928401 -6.308428 179.264736 58.102216 178.334123 -3.533852 -39.486801 4.123827 0.017774 0.134434 -0.016087
-40.147805 43.560141 27.733043 -179.646576 -27.717041 0.550129 -0.770191 16.821072 1.153993 -0.117033 1.771027 0.188377 -0.187393 2.960421 0.317456 -0.795036 14.934382 1.529875 -2.454963 16.518252 -3.041971 -1.871611 -8.274667 -2.637769 7.759487 -0.623565 -8.953735 -12.833748 -12.716446 -16.959983 -165.594648 -50.956925 -174.928098 -4.226973 -3.799508 -17.712115 -17.452186 -4.524476 -3.124727 1.208971 -18.782932 3.079933 147.080625 -53.509806 -178.353368 11.239622 1.267928 -3.564656 1.578362 -65.217001 3.696407 -154.400330 68.974699 -155.026098 -12.452879 -20.271442 9.558149 0.355390 -1.091775 0.163773 4.626474 -48.929605 -6.336660 179.260115 58.105318 178.321195 -3.543087 -39.493720 4.142896 0.016369 0.133195 -0.011384
-40.157690 43.560775 27.728250 -179.651920 -27.701962 0.568437 -0.761013 16.827276 1.152630 -0.124087 1.755448 0.179539 -0.177037 2.985015 0.332499 -0.807188 14.910905 1.518011 -2.443277 16.541090 -3.033068 -1.874669 -8.274439 -2.645457 7.786137 -0.602078 -8.938817 -12.713011 -12.717621 -16.981874 -165.636526 -50.966748 -174.915145 -4.210492 -3.787279 -17.704486 -17.431521 -4.499320 -3.122128 1.212282 -18.783299 3.105314 147.042139 -53.477410 -178.326449 11.255732 1.296613 -3.502334 1.635697 -65.228812 3.607973 -154.267214 68.948284 -154.894392 -12.355104 -20.261731 9.551885 0.333982 -1.107905 0.155317 4.647929 -48.935693 -6.365715 179.253145 58.107068 178.306067 -3.554880 -39.494741 4.162571 0.020248 0.128741 -0.013134
-40.166189 43.559475 27.727426 -179.678084 -27.657667 0.578948 -0.731571 16.793496 1.162295 -0.119652 1.768005 0.187810 -0.173974 2.985435 0.331503 -0.804883 14.914694 1.529291 -2.429486 16.570878 -3.031216 -1.895752 -8.301633 -2.654988 7.799264 -0.600714 -8.942860 -12.703473 -12.735847 -16.997470 -165.554239 -50.960514 -174.935660 -4.198096 -3.777710 -17.703143 -17.420436 -4.500414 -3.127112 1.207245 -18.786424 3.131335 146.985375 -53.505199 -178.292920 11.270867 1.263003 -3.435912 1.693897 -65.268711 3.535947 -154.341824 68.963180 -154.957898 -12.282673 -20.294260 9.552199 0.272111 -1.079619 0.128376 4.673906 -48.973287 -6.377579 179.238833 58.105892 178.289791 -3.556788 -39.505399 4.165550 0.018179 0.132216 -0.009404
-40.180425 43.560081 27.723889 -179.670111 -27.631725 0.600371 -0.740252 16.776777 1.143114 -0.102844 1.796447 0.201319 -0.189445 2.959041 0.319597 -0.781142 14.942550 1.552185 -2.455085 16.543870 -3.046170 -1.888784 -8.286962 -2.657728 7.783892 -0.625881 -8.959384 -12.602543 -12.727528 -17.010410 -165.536556 -50.967012 -174.952769 -4.192065 -3.768468 -17.707292 -17.420826 -4.515621 -3.129688 1.202994 -18.769896 3.182523 146.917933 -53.450427 -178.238484 11.291051 1.276395 -3.369555 1.795527 -65.289220 3.390472 -154.342991 68.961559 -154.940007 -12.252006 -20.283709 9.558145 0.220631 -1.064860 0.109233 4.698816 -48.990512 -6.429119 179.215032 58.110952 178.259205 -3.569388 -39.507369 4.175741 0.016686 0.134101 -0.005429
-40.188944 43.562195 27.718424 -179.671710 -27.618600 0.587384 -0.705096 16.808739 1.183639 -0.112234 1.781313 0.195883 -0.199383 2.941535 0.313984 -0.777032 14.944722 1.556708 -2.458460 16.542921 -3.047645 -1.881249 -8.272793 -2.659785 7.784714 -0.628777 -8.958063 -12.499107 -12.718130 -17.026657 -165.500570 -50.974026 -174.982506 -4.195578 -3.759844 -17.716325 -17.404582 -4.503412 -3.128049 1.192543 -18.766238 3.219198 146.866531 -53.417242 -178.196653 11.303790 1.285291 -3.313278 1.912270 -65.282105 3.223786 -154.509458 68.990893 -155.036441 -12.152921 -20.351517 9.544857 0.136934 -1.008711 0.073203 4.685413 -48.996759 -6.412054 179.209040 58.107150 178.250436 -3.586336 -39.513913 4.184702 0.022398 0.130790 0.001026
-40.198490 43.565131 27.712874 -179.672012 -27.607006 0.578672 -0.691266 16.814828 1.201937 -0.108022 1.788750 0.199255 -0.199394 2.943456 0.316251 -0.743252 14.974850 1.580268 -2.461176 16.546486 -3.049806 -1.912584 -8.306740 -2.659451 7.785061 -0.643540 -8.961134 -12.464062 -12.737991 -17.055039 -165.415051 -50.973292 -175.028647 -4.204842 -3.754969 -17.722205 -17.437454 -4.551743 -3.129331 1.203225 -18.752077 3.246446 146.818707 -53.414670 -178.167131 11.301670 1.273957 -3.273589 1.933142 -65.287308 3.190599 -154.567607 69.001859 -155.076556 -12.160493 -20.332463 9.539839 0.141602 -1.015421 0.074862 4.674039 -49.000274 -6.402087 179.202441 58.106082 178.237156 -3.595313 -39.520463 4.192431 0.021747 0.129472 0.004291
-40.207741 43.567939 27.709323 -179.675466 -27.583032 0.571729 -0.681550 16.797000 1.214069 -0.098551 1.807971 0.207418 -0.194037 2.945032 0.316350 -0.725662 14.987504 1.596099 -2.476333 16.534830 -3.052525 -1.919030 -8.310583 -2.658571 7.764248 -0.668458 -8.971628 -12.400563 -12.732741 -17.073680 -165.317506 -50.970660 -175.084607 -4.215144 -3.751794 -17.714419 -17.459013 -4.582003 -3.130997 1.227263 -18.736448 3.268176 146.801987 -53.441900 -178.147311 11.306151 1.244711 -3.277879 1.957560 -65.302405 3.157834 -154.621644 69.015253 -155.111187 -12.170479 -20.331486 9.534668 0.159403 -0.998808 0.076808 4.664451 -49.018252 -6.392734 179.197164 58.105491 178.224291 -3.603262 -39.524178 4.199035 0.023038 0.128514 0.006247
-40.217747 43.575348 27.698851 -179.637057 -27.607493 0.554308 -0.703623 16.845260 1.226213 -0.104332 1.796031 0.203530 -0.184979 2.961155 0.322993 -0.718822 14.989944 1.603865 -2.481333 16.531344 -3.052875 -1.924354 -8.314227 -2.657775 7.776339 -0.670412 -8.971324 -12.397642 -12.749277 -17.092134 -165.172400 -50.964578 -175.152900 -4.224480 -3.743309 -17.689227 -17.454321 -4.592685 -3.136800 1.247499 -18.729183 3.287115 146.748765 -53.406903 -178.129160 11.280274 1.272297 -3.258778 2.000695 -65.258926 3.051467 -154.931990 69.055292 -155.344324 -12.268526 -20.320296 9.494891 0.216343 -1.017857 0.097412 4.620462 -48.984842 -6.391371 179.196661 58.108089 178.215058 -3.605763 -39.522613 4.199522 0.026285 0.120910 0.011240
-40.224072 43.581377 27.692897 -179.616968 -27.602653 0.529670 -0.698915 16.879973 1.267759 -0.115763 1.767962 0.188822 -0.165879 3.000698 0.343095 -0.726937 14.968266 1.597792 -2.486484 16.528925 -3.053289 -1.929786 -8.316720 -2.657065 7.813820 -0.641769 -8.956077 -12.365885 -12.781575 -17.122768 -165.079551 -50.963951 -175.220141 -4.230150 -3.728294 -17.649990 -17.429492 -4.593932 -3.140947 1.255731 -18.724934 3.299308 146.727461 -53.391774 -178.122833 11.280428 1.272141 -3.274346 2.019552 -65.243558 2.999169 -155.157542 69.090845 -155.513231 -12.324102 -20.358202 9.477892 0.226002 -0.998107 0.100106 4.579151 -48.983211 -6.370478 179.215998 58.108743 178.227935 -3.592849 -39.529049 4.196478 0.027683 0.120613 0.013194
-40.231294 43.587198 27.689205 -179.611214 -27.584467 0.523416 -0.700255 16.867498 1.275767 -0.108142 1.786605 0.199351 -0.164096 3.000324 0.341692 -0.720896 14.973030 1.604538 -2.500361 16.513308 -3.059713 -1.927805 -8.303056 -2.654625 7.833445 -0.630045 -8.948209 -12.337346 -12.801384 -17.142590 -164.946697 -50.959151 -175.300097 -4.231057 -3.705397 -17.598005 -17.433701 -4.612708 -3.143474 1.283237 -18.709815 3.306679 146.754295 -53.440496 -178.115804 11.316314 1.208806 -3.343423 2.081363 -65.237070 2.914425 -155.297767 69.125372 -155.607832 -12.352691 -20.408045 9.483450 0.218692 -0.951575 0.087828 4.568758 -48.993552 -6.369526 179.216473 58.112323 178.224424 -3.591725 -39.530996 4.197635 0.027478 0.119896 0.013876
-40.232893 43.592836 27.687331 -179.617098 -27.555980 0.494185 -0.673437 16.858864 1.322269 -0.107516 1.787944 0.200195 -0.169936 2.990929 0.337554 -0.708718 14.988972 1.619891 -2.513997 16.498636 -3.069511 -1.927358 -8.287343 -2.653786 7.845943 -0.625443 -8.946544 -12.308617 -12.812684 -17.150763 -164.798140 -50.954086 -175.381523 -4.233486 -3.670539 -17.531405 -17.418291 -4.611356 -3.150900 1.263979 -18.731310 3.306967 146.751991 -53.460781 -178.105349 11.289083 1.217371 -3.349300 2.191218 -65.220383 2.779785 -155.511462 69.186717 -155.734081 -12.284063 -20.553302 9.476765 0.157910 -0.837494 0.058745 4.537373 -49.018800 -6.322291 179.224648 58.109331 178.233180 -3.587045 -39.536668 4.193672 0.030674 0.119382 0.014264
-40.239842 43.603273 27.677658 -179.574300 -27.583879 0.477160 -0.701462 16.905556 1.331605 -0.107247 1.789502 0.201109 -0.175380 2.981749 0.333435 -0.700949 14.996570 1.633124 -2.517963 16.508623 -3.073927 -1.933134 -8.286333 -2.657922 7.861063 -0.611262 -8.942730 -12.268000 -12.820924 -17.151463 -164.659550 -50.952687 -175.458294 -4.243454 -3.626922 -17.450451 -17.368683 -4.575209 -3.161397 1.254721 -18.747525 3.313592 146.703681 -53.420210 -178.100705 11.273122 1.245808 -3.341104 2.182496 -65.178845 2.732973 -155.709593 69.205669 -155.870494 -12.417496 -20.527724 9.434229 0.267096 -0.883590 0.098893 4.498587 -48.978794 -6.322673 179.233162 58.116189 178.235530 -3.581331 -39.537946 4.196625 0.030785 0.116427 0.014411
